<svg width="247" height="201" viewBox="0 0 247 201" fill="none" xmlns="http://www.w3.org/2000/svg">
<g filter="url(#filter0_d_4_16)">
<path d="M62.9981 0.263916H16C11.0294 0.263916 7 4.29335 7 9.26391V152.472C7 157.443 11.0294 161.472 16 161.472H233.311C238.282 161.472 242.311 157.443 242.311 152.472V28.8392C242.311 23.8687 238.282 19.8392 233.311 19.8392H90.75C88.4388 19.8392 86.2161 18.9501 84.5426 17.356L69.2054 2.74711C67.5319 1.15306 65.3093 0.263916 62.9981 0.263916Z" fill="#F25D94"/>
</g>
<g filter="url(#filter1_d_4_16)">
<path d="M7 62.9167C7 54.6325 13.7157 47.9167 22 47.9167H227.311C235.595 47.9167 242.311 54.6325 242.311 62.9167V185C242.311 193.284 235.595 200 227.311 200H22C13.7157 200 7 193.284 7 185V62.9167Z" fill="#FF94BB"/>
</g>
<path d="M25.4961 41.6943C25.4961 36.1715 29.9732 31.6943 35.4961 31.6943H213.815C219.338 31.6943 223.815 36.1715 223.815 41.6943V47.9166H25.4961V41.6943Z" fill="white"/>
<path d="M29.2287 132.709L52.9421 122.531V118.61L29.2287 108.459V113.588L46.6042 120.034L48.2155 120.544L46.6042 121L29.2287 127.553V132.709Z" fill="#2D2D2D"/>
<path d="M85.1021 150H92.8218V111.028H110.129V105.093H92.8218V101.938C92.8218 100.057 93.057 98.4106 93.5273 96.9995C94.0254 95.5884 94.7448 94.4401 95.6855 93.5547C96.571 92.6969 97.6777 92.0605 99.0059 91.6455C100.362 91.2028 101.911 90.9814 103.654 90.9814C105.37 90.9814 106.975 91.1336 108.469 91.438C109.991 91.7147 111.319 92.0467 112.453 92.4341L113.366 86.084C112.647 85.8903 111.941 85.7243 111.25 85.5859C110.558 85.4199 109.866 85.2677 109.174 85.1294C108.123 84.9357 107.058 84.7835 105.979 84.6729C104.899 84.5345 103.806 84.4653 102.7 84.4653C100.043 84.4653 97.6362 84.8389 95.478 85.5859C93.3198 86.333 91.4798 87.4398 89.958 88.9062C88.4085 90.3727 87.2049 92.1989 86.3472 94.3848C85.5171 96.543 85.1021 99.0609 85.1021 101.938V105.093H72.7339V111.028H85.1021V150ZM128.225 105.093H121.335V150H128.64V114.265C128.806 113.822 129.013 113.407 129.262 113.02C129.539 112.633 129.857 112.287 130.217 111.982C130.687 111.595 131.254 111.305 131.918 111.111C132.61 110.889 133.413 110.779 134.326 110.779C135.156 110.779 135.875 110.889 136.484 111.111C137.12 111.305 137.646 111.623 138.061 112.065C138.504 112.536 138.822 113.131 139.016 113.85C139.237 114.569 139.348 115.4 139.348 116.34V150H146.652V116.382C146.652 116.216 146.652 116.077 146.652 115.967C146.652 115.828 146.652 115.69 146.652 115.552C146.735 114.86 146.901 114.237 147.15 113.684C147.399 113.103 147.745 112.591 148.188 112.148C148.631 111.733 149.184 111.401 149.848 111.152C150.512 110.903 151.301 110.779 152.214 110.779C153.072 110.779 153.819 110.889 154.455 111.111C155.119 111.332 155.673 111.664 156.115 112.107C156.53 112.577 156.848 113.172 157.07 113.892C157.291 114.611 157.402 115.441 157.402 116.382V150H164.707V116.465C164.707 114.307 164.458 112.439 163.959 110.862C163.461 109.257 162.742 107.957 161.801 106.96C160.944 106.075 159.892 105.411 158.647 104.968C157.402 104.498 156.005 104.263 154.455 104.263C153.321 104.29 152.269 104.443 151.301 104.719C150.36 104.996 149.502 105.369 148.728 105.84C148.119 106.255 147.552 106.739 147.026 107.292C146.5 107.846 146.044 108.441 145.656 109.077C145.352 108.385 144.978 107.763 144.536 107.209C144.121 106.656 143.65 106.186 143.125 105.798C142.405 105.3 141.561 104.927 140.593 104.678C139.652 104.401 138.587 104.263 137.397 104.263C135.294 104.29 133.496 104.747 132.001 105.632C130.535 106.518 129.345 107.749 128.432 109.326L128.225 105.093ZM213.017 156.267V150H174.958V156.267H213.017Z" fill="#2D2D2D"/>
<path d="M30.5176 10.7734L29.209 10.5977C29.209 10.8451 29.1667 11.0827 29.082 11.3105C28.9974 11.5384 28.8835 11.737 28.7402 11.9062C28.5905 12.082 28.4147 12.222 28.2129 12.3262C28.0176 12.4303 27.806 12.4824 27.5781 12.4824C27.3828 12.4889 27.194 12.4694 27.0117 12.4238C26.8294 12.3717 26.6504 12.2969 26.4746 12.1992C26.3249 12.1211 26.1719 12.0267 26.0156 11.916C25.8594 11.7988 25.6966 11.6686 25.5273 11.5254C25.2734 11.3171 25.0228 11.1283 24.7754 10.959C24.5345 10.7897 24.2871 10.6465 24.0332 10.5293C23.7793 10.4121 23.5156 10.3242 23.2422 10.2656C22.9753 10.2005 22.6921 10.168 22.3926 10.168C21.9564 10.168 21.5592 10.2559 21.2012 10.4316C20.8431 10.6009 20.5371 10.832 20.2832 11.125C20.0228 11.418 19.821 11.7598 19.6777 12.1504C19.5345 12.541 19.4629 12.9512 19.4629 13.3809L20.7715 13.5469C20.7715 13.2995 20.8138 13.0684 20.8984 12.8535C20.9831 12.6322 21.097 12.4401 21.2402 12.2773C21.3835 12.1211 21.5527 11.9974 21.748 11.9062C21.9499 11.8086 22.1647 11.7598 22.3926 11.7598C22.5423 11.7598 22.6855 11.7728 22.8223 11.7988C22.9655 11.8249 23.1055 11.8672 23.2422 11.9258C23.4375 12.0039 23.6328 12.1113 23.8281 12.248C24.0299 12.3783 24.2383 12.5312 24.4531 12.707C24.7135 12.9284 24.9642 13.1237 25.2051 13.293C25.4525 13.4622 25.7031 13.6055 25.957 13.7227C26.2044 13.8398 26.4583 13.9277 26.7188 13.9863C26.9857 14.0449 27.2721 14.0742 27.5781 14.0742C28.0143 14.0742 28.4115 13.9831 28.7695 13.8008C29.1276 13.6185 29.4368 13.3743 29.6973 13.0684C29.9577 12.7624 30.1595 12.4108 30.3027 12.0137C30.446 11.6165 30.5176 11.2031 30.5176 10.7734Z" fill="#2D2D2D"/>
<path d="M30.5176 10.7734H30.8176V10.511L30.5575 10.4761L30.5176 10.7734ZM29.209 10.5977L29.2489 10.3003L28.909 10.2547V10.5977H29.209ZM28.7402 11.9062L28.9686 12.1008L28.9693 12.1L28.7402 11.9062ZM28.2129 12.3262L28.0753 12.0596L28.0717 12.0615L28.2129 12.3262ZM27.5781 12.4824V12.1823L27.5681 12.1826L27.5781 12.4824ZM27.0117 12.4238L26.9293 12.7124L26.939 12.7149L27.0117 12.4238ZM26.4746 12.1992L26.6204 11.9369L26.6134 11.9332L26.4746 12.1992ZM26.0156 11.916L25.8356 12.1561L25.8422 12.1608L26.0156 11.916ZM25.5273 11.5254L25.7211 11.2963L25.7176 11.2935L25.5273 11.5254ZM24.7754 10.959L24.6029 11.2045L24.606 11.2066L24.7754 10.959ZM23.2422 10.2656L23.1711 10.5572L23.1793 10.559L23.2422 10.2656ZM21.2012 10.4316L21.3294 10.7029L21.3334 10.7009L21.2012 10.4316ZM20.2832 11.125L20.5074 11.3243L20.5099 11.3215L20.2832 11.125ZM19.4629 13.3809H19.1629V13.6452L19.4251 13.6785L19.4629 13.3809ZM20.7715 13.5469L20.7337 13.8445L21.0715 13.8873V13.5469H20.7715ZM20.8984 12.8535L21.1776 12.9635L21.1787 12.9607L20.8984 12.8535ZM21.2402 12.2773L21.019 12.0746L21.015 12.0792L21.2402 12.2773ZM21.748 11.9062L21.8749 12.1781L21.8787 12.1763L21.748 11.9062ZM22.8223 11.7988L22.7661 12.0935L22.7686 12.094L22.8223 11.7988ZM23.2422 11.9258L23.124 12.2016L23.1308 12.2043L23.2422 11.9258ZM23.8281 12.248L23.656 12.494L23.6655 12.5001L23.8281 12.248ZM24.4531 12.707L24.6475 12.4784L24.6431 12.4748L24.4531 12.707ZM25.2051 13.293L25.0326 13.5384L25.0357 13.5406L25.2051 13.293ZM25.957 13.7227L26.0855 13.4515L26.0827 13.4503L25.957 13.7227ZM26.7188 13.9863L26.6529 14.279L26.6544 14.2794L26.7188 13.9863ZM28.7695 13.8008L28.6334 13.5334L28.7695 13.8008ZM29.6973 13.0684L29.9257 13.2628L29.6973 13.0684ZM30.5575 10.4761L29.2489 10.3003L29.169 10.895L30.4776 11.0708L30.5575 10.4761ZM28.909 10.5977C28.909 10.81 28.8728 11.0123 28.8008 11.2061L29.3633 11.415C29.4605 11.1531 29.509 10.8801 29.509 10.5977H28.909ZM28.8008 11.2061C28.7271 11.4045 28.6299 11.5722 28.5112 11.7125L28.9693 12.1C29.137 11.9018 29.2677 11.6723 29.3633 11.415L28.8008 11.2061ZM28.5119 11.7117C28.387 11.8583 28.2419 11.9736 28.0753 12.0596L28.3505 12.5928C28.5876 12.4704 28.794 12.3058 28.9686 12.1008L28.5119 11.7117ZM28.0717 12.0615C27.9212 12.1418 27.7583 12.1824 27.5781 12.1824V12.7824C27.8537 12.7824 28.114 12.7189 28.3541 12.5909L28.0717 12.0615ZM27.5681 12.1826C27.3996 12.1882 27.2387 12.1713 27.0845 12.1328L26.939 12.7149C27.1494 12.7675 27.3661 12.7897 27.5881 12.7823L27.5681 12.1826ZM27.0941 12.1354C26.9352 12.0899 26.7773 12.0242 26.6203 11.937L26.3289 12.4615C26.5235 12.5696 26.7237 12.6535 26.9293 12.7123L27.0941 12.1354ZM26.6134 11.9332C26.4771 11.8621 26.3357 11.7751 26.189 11.6712L25.8422 12.1608C26.0081 12.2783 26.1726 12.38 26.3358 12.4652L26.6134 11.9332ZM26.1956 11.676C26.0447 11.5628 25.8865 11.4363 25.7211 11.2964L25.3336 11.7544C25.5067 11.9009 25.6741 12.0349 25.8356 12.156L26.1956 11.676ZM25.7176 11.2935C25.4576 11.0801 25.2 10.886 24.9448 10.7114L24.606 11.2066C24.8456 11.3705 25.0892 11.554 25.337 11.7573L25.7176 11.2935ZM24.9479 10.7135C24.693 10.5344 24.43 10.382 24.1589 10.2569L23.9075 10.8017C24.1442 10.9109 24.376 11.045 24.6029 11.2044L24.9479 10.7135ZM24.1589 10.2569C23.8849 10.1304 23.6001 10.0355 23.305 9.97228L23.1793 10.559C23.4311 10.6129 23.6737 10.6938 23.9075 10.8017L24.1589 10.2569ZM23.3133 9.97417C23.0211 9.90291 22.7139 9.86797 22.3926 9.86797V10.468C22.6702 10.468 22.9294 10.4981 23.1711 10.5571L23.3133 9.97417ZM22.3926 9.86797C21.9149 9.86797 21.4719 9.96453 21.069 10.1623L21.3334 10.7009C21.6466 10.5472 21.9979 10.468 22.3926 10.468V9.86797ZM21.073 10.1604C20.6781 10.3471 20.3383 10.6034 20.0565 10.9285L20.5099 11.3215C20.7359 11.0607 21.0081 10.8547 21.3294 10.7029L21.073 10.1604ZM20.059 10.9257C19.7721 11.2485 19.5515 11.6234 19.3961 12.0471L19.9594 12.2537C20.0905 11.8962 20.2735 11.5875 20.5074 11.3243L20.059 10.9257ZM19.3961 12.0471C19.2403 12.4719 19.1629 12.9171 19.1629 13.3809H19.7629C19.7629 12.9852 19.8287 12.6101 19.9594 12.2537L19.3961 12.0471ZM19.4251 13.6785L20.7337 13.8445L20.8092 13.2493L19.5006 13.0832L19.4251 13.6785ZM21.0715 13.5469C21.0715 13.3344 21.1077 13.1409 21.1776 12.9635L20.6193 12.7436C20.5199 12.9959 20.4715 13.2646 20.4715 13.5469H21.0715ZM21.1787 12.9607C21.2517 12.7696 21.3479 12.6091 21.4654 12.4755L21.015 12.0792C20.8461 12.2711 20.7144 12.4947 20.6182 12.7464L21.1787 12.9607ZM21.4614 12.4801C21.5776 12.3533 21.7146 12.2529 21.8749 12.1781L21.6212 11.6344C21.3908 11.7419 21.1894 11.8889 21.0191 12.0746L21.4614 12.4801ZM21.8787 12.1763C22.0391 12.0987 22.2092 12.0598 22.3926 12.0598V11.4598C22.1202 11.4598 21.8606 11.5185 21.6174 11.6362L21.8787 12.1763ZM22.3926 12.0598C22.5249 12.0598 22.6493 12.0713 22.7661 12.0935L22.8784 11.5041C22.7218 11.4743 22.5597 11.4598 22.3926 11.4598V12.0598ZM22.7686 12.094C22.8892 12.1159 23.0075 12.1516 23.124 12.2015L23.3604 11.65C23.2034 11.5828 23.0418 11.5338 22.8759 11.5037L22.7686 12.094ZM23.1308 12.2043C23.3021 12.2728 23.4772 12.3686 23.6561 12.4938L24.0002 12.0023C23.7884 11.8541 23.5729 11.735 23.3536 11.6472L23.1308 12.2043ZM23.6655 12.5001C23.8565 12.6234 24.0557 12.7695 24.2632 12.9392L24.6431 12.4748C24.4208 12.293 24.2034 12.1331 23.9908 11.996L23.6655 12.5001ZM24.2588 12.9356C24.5252 13.162 24.7831 13.3631 25.0326 13.5384L25.3776 13.0475C25.1453 12.8843 24.9019 12.6948 24.6474 12.4784L24.2588 12.9356ZM25.0357 13.5406C25.2959 13.7186 25.5611 13.8703 25.8313 13.995L26.0827 13.4503C25.8451 13.3406 25.609 13.2058 25.3745 13.0454L25.0357 13.5406ZM25.8286 13.9938C26.0955 14.1202 26.3703 14.2154 26.6529 14.279L26.7846 13.6936C26.5463 13.64 26.3134 13.5595 26.0855 13.4515L25.8286 13.9938ZM26.6544 14.2794C26.9448 14.3431 27.253 14.3742 27.5781 14.3742V13.7742C27.2912 13.7742 27.0265 13.7467 26.7831 13.6933L26.6544 14.2794ZM27.5781 14.3742C28.0575 14.3742 28.5019 14.2737 28.9056 14.0681L28.6334 13.5334C28.321 13.6925 27.9711 13.7742 27.5781 13.7742V14.3742ZM28.9056 14.0681C29.299 13.8679 29.6396 13.5989 29.9257 13.2628L29.4688 12.8739C29.2341 13.1498 28.9562 13.3691 28.6334 13.5334L28.9056 14.0681ZM29.9257 13.2628C30.2106 12.928 30.4301 12.5447 30.5849 12.1155L30.0205 11.9119C29.8889 12.2769 29.7047 12.5967 29.4688 12.8739L29.9257 13.2628ZM30.5849 12.1155C30.7402 11.6851 30.8176 11.2372 30.8176 10.7734H30.2176C30.2176 11.1691 30.1518 11.548 30.0205 11.9119L30.5849 12.1155Z" fill="#2D2D2D"/>
<defs>
<filter id="filter0_d_4_16" x="3" y="0.263916" width="243.311" height="169.208" filterUnits="userSpaceOnUse" color-interpolation-filters="sRGB">
<feFlood flood-opacity="0" result="BackgroundImageFix"/>
<feColorMatrix in="SourceAlpha" type="matrix" values="0 0 0 0 0 0 0 0 0 0 0 0 0 0 0 0 0 0 127 0" result="hardAlpha"/>
<feOffset dy="4"/>
<feGaussianBlur stdDeviation="2"/>
<feColorMatrix type="matrix" values="0 0 0 0 0 0 0 0 0 0 0 0 0 0 0 0 0 0 0.25 0"/>
<feBlend mode="normal" in2="BackgroundImageFix" result="effect1_dropShadow_4_16"/>
<feBlend mode="normal" in="SourceGraphic" in2="effect1_dropShadow_4_16" result="shape"/>
</filter>
<filter id="filter1_d_4_16" x="3" y="40.9167" width="243.311" height="160.083" filterUnits="userSpaceOnUse" color-interpolation-filters="sRGB">
<feFlood flood-opacity="0" result="BackgroundImageFix"/>
<feColorMatrix in="SourceAlpha" type="matrix" values="0 0 0 0 0 0 0 0 0 0 0 0 0 0 0 0 0 0 127 0" result="hardAlpha"/>
<feOffset dy="-3"/>
<feGaussianBlur stdDeviation="2"/>
<feColorMatrix type="matrix" values="0 0 0 0 0 0 0 0 0 0 0 0 0 0 0 0 0 0 0.25 0"/>
<feBlend mode="normal" in2="BackgroundImageFix" result="effect1_dropShadow_4_16"/>
<feBlend mode="normal" in="SourceGraphic" in2="effect1_dropShadow_4_16" result="shape"/>
</filter>
</defs>
</svg>
